<?xml version="1.0" encoding="UTF-8" standalone="no"?>
<svg width="291.747mm" height="282.928mm"
 xmlns="http://www.w3.org/2000/svg" xmlns:xlink="http://www.w3.org/1999/xlink"  version="1.2" baseProfile="tiny">
<title>Qt Svg Document</title>
<desc>Generated with Qt</desc>
<defs>
</defs>
<g fill="none" stroke="black" stroke-width="1" fill-rule="evenodd" stroke-linecap="square" stroke-linejoin="bevel" >

<g fill="#ffffff" fill-opacity="1" stroke="none" transform="matrix(1,0,0,1,-83,-28)"
font-family="Sans Serif" font-size="9" font-weight="400" font-style="normal" 
>
<path vector-effect="non-scaling-stroke" fill-rule="evenodd" d="M83,28 L910,28 L910,830 L83,830 L83,28"/>
</g>

<g fill="none" stroke="#ff0000" stroke-opacity="1" stroke-width="1" stroke-linecap="square" stroke-linejoin="bevel" transform="matrix(1,0,0,1,-83,-28)"
font-family="Sans Serif" font-size="9" font-weight="400" font-style="normal" 
>
<polyline fill="none" vector-effect="non-scaling-stroke" points="593,198 593,371 " />
<polyline fill="none" vector-effect="non-scaling-stroke" points="407,169 523,169 " />
<polyline fill="none" vector-effect="non-scaling-stroke" points="337,169 153,208 " />
<polyline fill="none" vector-effect="non-scaling-stroke" points="655,401 655,695 " />
<polyline fill="none" vector-effect="non-scaling-stroke" points="593,198 758,226 " />
<polyline fill="none" vector-effect="non-scaling-stroke" points="523,198 386,379 " />
<polyline fill="none" vector-effect="non-scaling-stroke" points="593,170 761,155 " />
<polyline fill="none" vector-effect="non-scaling-stroke" points="589,203 597,203 " />
<path vector-effect="non-scaling-stroke" fill-rule="evenodd" d="M599,204 C599,207.314 596.314,210 593,210 C589.686,210 587,207.314 587,204 C587,200.686 589.686,198 593,198 C596.314,198 599,200.686 599,204 "/>
<polyline fill="none" vector-effect="non-scaling-stroke" points="412,173 412,165 " />
<path vector-effect="non-scaling-stroke" fill-rule="evenodd" d="M419,169 C419,172.314 416.314,175 413,175 C409.686,175 407,172.314 407,169 C407,165.686 409.686,163 413,163 C416.314,163 419,165.686 419,169 "/>
<polyline fill="none" vector-effect="non-scaling-stroke" points="332,166 333,174 " />
<path vector-effect="non-scaling-stroke" fill-rule="evenodd" d="M337,170 C337,173.314 334.314,176 331,176 C327.686,176 325,173.314 325,170 C325,166.686 327.686,164 331,164 C334.314,164 337,166.686 337,170 "/>
<polyline fill="none" vector-effect="non-scaling-stroke" points="651,406 659,406 " />
<path vector-effect="non-scaling-stroke" fill-rule="evenodd" d="M661,407 C661,410.314 658.314,413 655,413 C651.686,413 649,410.314 649,407 C649,403.686 651.686,401 655,401 C658.314,401 661,403.686 661,407 "/>
<polyline fill="none" vector-effect="non-scaling-stroke" points="597,202 598,195 " />
<path vector-effect="non-scaling-stroke" fill-rule="evenodd" d="M605,199 C605,202.314 602.314,205 599,205 C595.686,205 593,202.314 593,199 C593,195.686 595.686,193 599,193 C602.314,193 605,195.686 605,199 "/>
<polyline fill="none" vector-effect="non-scaling-stroke" points="517,200 523,204 " />
<path vector-effect="non-scaling-stroke" fill-rule="evenodd" d="M525,203 C525,206.314 522.314,209 519,209 C515.686,209 513,206.314 513,203 C513,199.686 515.686,197 519,197 C522.314,197 525,199.686 525,203 "/>
<polyline fill="none" vector-effect="non-scaling-stroke" points="598,173 597,166 " />
<path vector-effect="non-scaling-stroke" fill-rule="evenodd" d="M605,169 C605,172.314 602.314,175 599,175 C595.686,175 593,172.314 593,169 C593,165.686 595.686,163 599,163 C602.314,163 605,165.686 605,169 "/>
</g>

<g fill="none" stroke="#323232" stroke-opacity="1" stroke-width="1" stroke-linecap="square" stroke-linejoin="bevel" transform="matrix(1,0,0,1,-83,-28)"
font-family="Sans Serif" font-size="28" font-weight="400" font-style="normal" 
>
<text fill="#323232" fill-opacity="1" stroke="none" xml:space="preserve" x="294" y="61" font-family="Sans Serif" font-size="28" font-weight="400" font-style="normal" 
 >Namespaces</text>
</g>

<g fill="#ffff00" fill-opacity="1" stroke="#ff0000" stroke-opacity="1" stroke-width="1" stroke-linecap="square" stroke-linejoin="bevel" transform="matrix(1,0,0,1,-83,-28)"
font-family="Sans Serif" font-size="28" font-weight="400" font-style="normal" 
>
<path vector-effect="non-scaling-stroke" fill-rule="evenodd" d="M523,160 L573,160 L573,170 L523,170 L523,160"/>
<path vector-effect="non-scaling-stroke" fill-rule="evenodd" d="M523,169 L593,169 L593,197 L523,197 L523,169"/>
</g>

<g fill="#ffff00" fill-opacity="1" stroke="#000000" stroke-opacity="1" stroke-width="1" stroke-linecap="square" stroke-linejoin="bevel" transform="matrix(1,0,0,1,-83,-28)"
font-family="Sans Serif" font-size="9" font-weight="700" font-style="normal" 
>
</g>

<g fill="#ffff00" fill-opacity="1" stroke="#000000" stroke-opacity="1" stroke-width="1" stroke-linecap="square" stroke-linejoin="bevel" transform="matrix(1,0,0,1,-83,-28)"
font-family="Sans Serif" font-size="9" font-weight="700" font-style="normal" 
>
<text fill="#000000" fill-opacity="1" stroke="none" xml:space="preserve" x="550" y="183" font-family="Sans Serif" font-size="9" font-weight="700" font-style="normal" 
 >pdf</text>
</g>

<g fill="#ffff00" fill-opacity="1" stroke="#000000" stroke-opacity="1" stroke-width="1" stroke-linecap="square" stroke-linejoin="bevel" transform="matrix(1,0,0,1,-83,-28)"
font-family="Sans Serif" font-size="9" font-weight="700" font-style="normal" 
>
</g>

<g fill="#ffff00" fill-opacity="1" stroke="#ff0000" stroke-opacity="1" stroke-width="1" stroke-linecap="square" stroke-linejoin="bevel" transform="matrix(1,0,0,1,-83,-28)"
font-family="Sans Serif" font-size="9" font-weight="700" font-style="normal" 
>
<path vector-effect="non-scaling-stroke" fill-rule="evenodd" d="M316,379 L366,379 L366,389 L316,389 L316,379"/>
<path vector-effect="non-scaling-stroke" fill-rule="evenodd" d="M316,388 L386,388 L386,408 L316,408 L316,388"/>
</g>

<g fill="#ffff00" fill-opacity="1" stroke="#000000" stroke-opacity="1" stroke-width="1" stroke-linecap="square" stroke-linejoin="bevel" transform="matrix(1,0,0,1,-83,-28)"
font-family="Sans Serif" font-size="9" font-weight="700" font-style="normal" 
>
</g>

<g fill="#ffff00" fill-opacity="1" stroke="#000000" stroke-opacity="1" stroke-width="1" stroke-linecap="square" stroke-linejoin="bevel" transform="matrix(1,0,0,1,-83,-28)"
font-family="Sans Serif" font-size="9" font-weight="700" font-style="normal" 
>
<text fill="#000000" fill-opacity="1" stroke="none" xml:space="preserve" x="330.5" y="402" font-family="Sans Serif" font-size="9" font-weight="700" font-style="normal" 
 >features</text>
</g>

<g fill="#ffff00" fill-opacity="1" stroke="#000000" stroke-opacity="1" stroke-width="1" stroke-linecap="square" stroke-linejoin="bevel" transform="matrix(1,0,0,1,-83,-28)"
font-family="Sans Serif" font-size="9" font-weight="700" font-style="normal" 
>
</g>

<g fill="#ffff00" fill-opacity="1" stroke="#ff0000" stroke-opacity="1" stroke-width="1" stroke-linecap="square" stroke-linejoin="bevel" transform="matrix(1,0,0,1,-83,-28)"
font-family="Sans Serif" font-size="9" font-weight="700" font-style="normal" 
>
<path vector-effect="non-scaling-stroke" fill-rule="evenodd" d="M761,125 L811,125 L811,135 L761,135 L761,125"/>
<path vector-effect="non-scaling-stroke" fill-rule="evenodd" d="M761,134 L831,134 L831,154 L761,154 L761,134"/>
</g>

<g fill="#ffff00" fill-opacity="1" stroke="#000000" stroke-opacity="1" stroke-width="1" stroke-linecap="square" stroke-linejoin="bevel" transform="matrix(1,0,0,1,-83,-28)"
font-family="Sans Serif" font-size="9" font-weight="700" font-style="normal" 
>
</g>

<g fill="#ffff00" fill-opacity="1" stroke="#000000" stroke-opacity="1" stroke-width="1" stroke-linecap="square" stroke-linejoin="bevel" transform="matrix(1,0,0,1,-83,-28)"
font-family="Sans Serif" font-size="9" font-weight="700" font-style="normal" 
>
<text fill="#000000" fill-opacity="1" stroke="none" xml:space="preserve" x="790.5" y="148" font-family="Sans Serif" font-size="9" font-weight="700" font-style="normal" 
 >cli</text>
</g>

<g fill="#ffff00" fill-opacity="1" stroke="#000000" stroke-opacity="1" stroke-width="1" stroke-linecap="square" stroke-linejoin="bevel" transform="matrix(1,0,0,1,-83,-28)"
font-family="Sans Serif" font-size="9" font-weight="700" font-style="normal" 
>
</g>

<g fill="#ffff00" fill-opacity="1" stroke="#ff0000" stroke-opacity="1" stroke-width="1" stroke-linecap="square" stroke-linejoin="bevel" transform="matrix(1,0,0,1,-83,-28)"
font-family="Sans Serif" font-size="9" font-weight="700" font-style="normal" 
>
<path vector-effect="non-scaling-stroke" fill-rule="evenodd" d="M83,208 L133,208 L133,218 L83,218 L83,208"/>
<path vector-effect="non-scaling-stroke" fill-rule="evenodd" d="M83,217 L153,217 L153,237 L83,237 L83,217"/>
</g>

<g fill="#ffff00" fill-opacity="1" stroke="#000000" stroke-opacity="1" stroke-width="1" stroke-linecap="square" stroke-linejoin="bevel" transform="matrix(1,0,0,1,-83,-28)"
font-family="Sans Serif" font-size="9" font-weight="700" font-style="normal" 
>
</g>

<g fill="#ffff00" fill-opacity="1" stroke="#000000" stroke-opacity="1" stroke-width="1" stroke-linecap="square" stroke-linejoin="bevel" transform="matrix(1,0,0,1,-83,-28)"
font-family="Sans Serif" font-size="9" font-weight="700" font-style="normal" 
>
<text fill="#000000" fill-opacity="1" stroke="none" xml:space="preserve" x="97.5" y="231" font-family="Sans Serif" font-size="9" font-weight="700" font-style="normal" 
 >common</text>
</g>

<g fill="#ffff00" fill-opacity="1" stroke="#000000" stroke-opacity="1" stroke-width="1" stroke-linecap="square" stroke-linejoin="bevel" transform="matrix(1,0,0,1,-83,-28)"
font-family="Sans Serif" font-size="9" font-weight="700" font-style="normal" 
>
</g>

<g fill="#ffff00" fill-opacity="1" stroke="#ff0000" stroke-opacity="1" stroke-width="1" stroke-linecap="square" stroke-linejoin="bevel" transform="matrix(1,0,0,1,-83,-28)"
font-family="Sans Serif" font-size="9" font-weight="700" font-style="normal" 
>
<path vector-effect="non-scaling-stroke" fill-rule="evenodd" d="M83,242 L83,291 L132,291 L132,252 L122,242 L83,242"/>
<polyline fill="none" vector-effect="non-scaling-stroke" points="122,242 122,252 " />
<polyline fill="none" vector-effect="non-scaling-stroke" points="122,252 132,252 " />
</g>

<g fill="#ffff00" fill-opacity="1" stroke="#000000" stroke-opacity="1" stroke-width="1" stroke-linecap="square" stroke-linejoin="bevel" transform="matrix(1,0,0,1,-83,-28)"
font-family="Sans Serif" font-size="9" font-weight="400" font-style="normal" 
>
</g>

<g fill="#ffff00" fill-opacity="1" stroke="#000000" stroke-opacity="1" stroke-width="1" stroke-linecap="square" stroke-linejoin="bevel" transform="matrix(1,0,0,1,-83,-28)"
font-family="Sans Serif" font-size="9" font-weight="400" font-style="normal" 
>
<text fill="#000000" fill-opacity="1" stroke="none" xml:space="preserve" x="92" y="266" font-family="Sans Serif" font-size="9" font-weight="400" font-style="normal" 
 >ExtractorGeometryTools</text>
</g>

<g fill="#ffff00" fill-opacity="1" stroke="#000000" stroke-opacity="1" stroke-width="1" stroke-linecap="square" stroke-linejoin="bevel" transform="matrix(1,0,0,1,-83,-28)"
font-family="Sans Serif" font-size="9" font-weight="400" font-style="normal" 
>
</g>

<g fill="#ffff00" fill-opacity="1" stroke="#000000" stroke-opacity="1" stroke-width="1" stroke-linecap="square" stroke-linejoin="bevel" transform="matrix(1,0,0,1,-83,-28)"
font-family="Sans Serif" font-size="9" font-weight="400" font-style="normal" 
>
<text fill="#000000" fill-opacity="1" stroke="none" xml:space="preserve" x="92" y="286" font-family="Sans Serif" font-size="9" font-weight="400" font-style="normal" 
 >Images</text>
</g>

<g fill="#ffff00" fill-opacity="1" stroke="#000000" stroke-opacity="1" stroke-width="1" stroke-linecap="square" stroke-linejoin="bevel" transform="matrix(1,0,0,1,-83,-28)"
font-family="Sans Serif" font-size="9" font-weight="400" font-style="normal" 
>
</g>

<g fill="#ffff00" fill-opacity="1" stroke="#ff0000" stroke-opacity="1" stroke-width="1" stroke-linecap="square" stroke-linejoin="bevel" transform="matrix(1,0,0,1,-83,-28)"
font-family="Sans Serif" font-size="9" font-weight="400" font-style="normal" 
>
<path vector-effect="non-scaling-stroke" fill-rule="evenodd" d="M316,416 L316,465 L365,465 L365,426 L355,416 L316,416"/>
<polyline fill="none" vector-effect="non-scaling-stroke" points="355,416 355,426 " />
<polyline fill="none" vector-effect="non-scaling-stroke" points="355,426 365,426 " />
</g>

<g fill="#ffff00" fill-opacity="1" stroke="#000000" stroke-opacity="1" stroke-width="1" stroke-linecap="square" stroke-linejoin="bevel" transform="matrix(1,0,0,1,-83,-28)"
font-family="Sans Serif" font-size="9" font-weight="400" font-style="normal" 
>
</g>

<g fill="#ffff00" fill-opacity="1" stroke="#000000" stroke-opacity="1" stroke-width="1" stroke-linecap="square" stroke-linejoin="bevel" transform="matrix(1,0,0,1,-83,-28)"
font-family="Sans Serif" font-size="9" font-weight="400" font-style="normal" 
>
<text fill="#000000" fill-opacity="1" stroke="none" xml:space="preserve" x="325" y="440" font-family="Sans Serif" font-size="9" font-weight="400" font-style="normal" 
 >GraphicalAreas</text>
</g>

<g fill="#ffff00" fill-opacity="1" stroke="#000000" stroke-opacity="1" stroke-width="1" stroke-linecap="square" stroke-linejoin="bevel" transform="matrix(1,0,0,1,-83,-28)"
font-family="Sans Serif" font-size="9" font-weight="400" font-style="normal" 
>
</g>

<g fill="#ffff00" fill-opacity="1" stroke="#000000" stroke-opacity="1" stroke-width="1" stroke-linecap="square" stroke-linejoin="bevel" transform="matrix(1,0,0,1,-83,-28)"
font-family="Sans Serif" font-size="9" font-weight="400" font-style="normal" 
>
<text fill="#000000" fill-opacity="1" stroke="none" xml:space="preserve" x="325" y="460" font-family="Sans Serif" font-size="9" font-weight="400" font-style="normal" 
 >GraphicalAreasProvider</text>
</g>

<g fill="#ffff00" fill-opacity="1" stroke="#000000" stroke-opacity="1" stroke-width="1" stroke-linecap="square" stroke-linejoin="bevel" transform="matrix(1,0,0,1,-83,-28)"
font-family="Sans Serif" font-size="9" font-weight="400" font-style="normal" 
>
</g>

<g fill="#ffff00" fill-opacity="1" stroke="#ff0000" stroke-opacity="1" stroke-width="1" stroke-linecap="square" stroke-linejoin="bevel" transform="matrix(1,0,0,1,-83,-28)"
font-family="Sans Serif" font-size="9" font-weight="400" font-style="normal" 
>
<path vector-effect="non-scaling-stroke" fill-rule="evenodd" d="M585,371 L635,371 L635,381 L585,381 L585,371"/>
<path vector-effect="non-scaling-stroke" fill-rule="evenodd" d="M585,380 L655,380 L655,400 L585,400 L585,380"/>
</g>

<g fill="#ffff00" fill-opacity="1" stroke="#000000" stroke-opacity="1" stroke-width="1" stroke-linecap="square" stroke-linejoin="bevel" transform="matrix(1,0,0,1,-83,-28)"
font-family="Sans Serif" font-size="9" font-weight="700" font-style="normal" 
>
</g>

<g fill="#ffff00" fill-opacity="1" stroke="#000000" stroke-opacity="1" stroke-width="1" stroke-linecap="square" stroke-linejoin="bevel" transform="matrix(1,0,0,1,-83,-28)"
font-family="Sans Serif" font-size="9" font-weight="700" font-style="normal" 
>
<text fill="#000000" fill-opacity="1" stroke="none" xml:space="preserve" x="609.5" y="394" font-family="Sans Serif" font-size="9" font-weight="700" font-style="normal" 
 >core</text>
</g>

<g fill="#ffff00" fill-opacity="1" stroke="#000000" stroke-opacity="1" stroke-width="1" stroke-linecap="square" stroke-linejoin="bevel" transform="matrix(1,0,0,1,-83,-28)"
font-family="Sans Serif" font-size="9" font-weight="700" font-style="normal" 
>
</g>

<g fill="#ffff00" fill-opacity="1" stroke="#ff0000" stroke-opacity="1" stroke-width="1" stroke-linecap="square" stroke-linejoin="bevel" transform="matrix(1,0,0,1,-83,-28)"
font-family="Sans Serif" font-size="9" font-weight="700" font-style="normal" 
>
<path vector-effect="non-scaling-stroke" fill-rule="evenodd" d="M561,695 L611,695 L611,705 L561,705 L561,695"/>
<path vector-effect="non-scaling-stroke" fill-rule="evenodd" d="M561,704 L672,704 L672,724 L561,724 L561,704"/>
</g>

<g fill="#ffff00" fill-opacity="1" stroke="#000000" stroke-opacity="1" stroke-width="1" stroke-linecap="square" stroke-linejoin="bevel" transform="matrix(1,0,0,1,-83,-28)"
font-family="Sans Serif" font-size="9" font-weight="700" font-style="normal" 
>
</g>

<g fill="#ffff00" fill-opacity="1" stroke="#000000" stroke-opacity="1" stroke-width="1" stroke-linecap="square" stroke-linejoin="bevel" transform="matrix(1,0,0,1,-83,-28)"
font-family="Sans Serif" font-size="9" font-weight="700" font-style="normal" 
>
<text fill="#000000" fill-opacity="1" stroke="none" xml:space="preserve" x="566" y="718" font-family="Sans Serif" font-size="9" font-weight="700" font-style="normal" 
 >documentProcessing</text>
</g>

<g fill="#ffff00" fill-opacity="1" stroke="#000000" stroke-opacity="1" stroke-width="1" stroke-linecap="square" stroke-linejoin="bevel" transform="matrix(1,0,0,1,-83,-28)"
font-family="Sans Serif" font-size="9" font-weight="700" font-style="normal" 
>
</g>

<g fill="#ffff00" fill-opacity="1" stroke="#ff0000" stroke-opacity="1" stroke-width="1" stroke-linecap="square" stroke-linejoin="bevel" transform="matrix(1,0,0,1,-83,-28)"
font-family="Sans Serif" font-size="9" font-weight="700" font-style="normal" 
>
<path vector-effect="non-scaling-stroke" fill-rule="evenodd" d="M337,139 L387,139 L387,149 L337,149 L337,139"/>
<path vector-effect="non-scaling-stroke" fill-rule="evenodd" d="M337,148 L407,148 L407,168 L337,168 L337,148"/>
</g>

<g fill="#ffff00" fill-opacity="1" stroke="#000000" stroke-opacity="1" stroke-width="1" stroke-linecap="square" stroke-linejoin="bevel" transform="matrix(1,0,0,1,-83,-28)"
font-family="Sans Serif" font-size="9" font-weight="700" font-style="normal" 
>
</g>

<g fill="#ffff00" fill-opacity="1" stroke="#000000" stroke-opacity="1" stroke-width="1" stroke-linecap="square" stroke-linejoin="bevel" transform="matrix(1,0,0,1,-83,-28)"
font-family="Sans Serif" font-size="9" font-weight="700" font-style="normal" 
>
<text fill="#000000" fill-opacity="1" stroke="none" xml:space="preserve" x="354" y="162" font-family="Sans Serif" font-size="9" font-weight="700" font-style="normal" 
 >invenio</text>
</g>

<g fill="#ffff00" fill-opacity="1" stroke="#000000" stroke-opacity="1" stroke-width="1" stroke-linecap="square" stroke-linejoin="bevel" transform="matrix(1,0,0,1,-83,-28)"
font-family="Sans Serif" font-size="9" font-weight="700" font-style="normal" 
>
</g>

<g fill="#ffff00" fill-opacity="1" stroke="#ff0000" stroke-opacity="1" stroke-width="1" stroke-linecap="square" stroke-linejoin="bevel" transform="matrix(1,0,0,1,-83,-28)"
font-family="Sans Serif" font-size="9" font-weight="700" font-style="normal" 
>
<path vector-effect="non-scaling-stroke" fill-rule="evenodd" d="M585,413 L585,462 L634,462 L634,423 L624,413 L585,413"/>
<polyline fill="none" vector-effect="non-scaling-stroke" points="624,413 624,423 " />
<polyline fill="none" vector-effect="non-scaling-stroke" points="624,423 634,423 " />
</g>

<g fill="#ffff00" fill-opacity="1" stroke="#000000" stroke-opacity="1" stroke-width="1" stroke-linecap="square" stroke-linejoin="bevel" transform="matrix(1,0,0,1,-83,-28)"
font-family="Sans Serif" font-size="9" font-weight="400" font-style="normal" 
>
</g>

<g fill="#ffff00" fill-opacity="1" stroke="#000000" stroke-opacity="1" stroke-width="1" stroke-linecap="square" stroke-linejoin="bevel" transform="matrix(1,0,0,1,-83,-28)"
font-family="Sans Serif" font-size="9" font-weight="400" font-style="normal" 
>
<text fill="#000000" fill-opacity="1" stroke="none" xml:space="preserve" x="594" y="437" font-family="Sans Serif" font-size="9" font-weight="400" font-style="normal" 
 >Operation</text>
</g>

<g fill="#ffff00" fill-opacity="1" stroke="#000000" stroke-opacity="1" stroke-width="1" stroke-linecap="square" stroke-linejoin="bevel" transform="matrix(1,0,0,1,-83,-28)"
font-family="Sans Serif" font-size="9" font-weight="400" font-style="normal" 
>
</g>

<g fill="#ffff00" fill-opacity="1" stroke="#000000" stroke-opacity="1" stroke-width="1" stroke-linecap="square" stroke-linejoin="bevel" transform="matrix(1,0,0,1,-83,-28)"
font-family="Sans Serif" font-size="9" font-weight="400" font-style="normal" 
>
<text fill="#000000" fill-opacity="1" stroke="none" xml:space="preserve" x="594" y="457" font-family="Sans Serif" font-size="9" font-weight="400" font-style="normal" 
 >DisplayedOperation</text>
</g>

<g fill="#ffff00" fill-opacity="1" stroke="#000000" stroke-opacity="1" stroke-width="1" stroke-linecap="square" stroke-linejoin="bevel" transform="matrix(1,0,0,1,-83,-28)"
font-family="Sans Serif" font-size="9" font-weight="400" font-style="normal" 
>
</g>

<g fill="#ffff00" fill-opacity="1" stroke="#ff0000" stroke-opacity="1" stroke-width="1" stroke-linecap="square" stroke-linejoin="bevel" transform="matrix(1,0,0,1,-83,-28)"
font-family="Sans Serif" font-size="9" font-weight="400" font-style="normal" 
>
<path vector-effect="non-scaling-stroke" fill-rule="evenodd" d="M761,159 L761,208 L810,208 L810,169 L800,159 L761,159"/>
<polyline fill="none" vector-effect="non-scaling-stroke" points="800,159 800,169 " />
<polyline fill="none" vector-effect="non-scaling-stroke" points="800,169 810,169 " />
</g>

<g fill="#ffff00" fill-opacity="1" stroke="#000000" stroke-opacity="1" stroke-width="1" stroke-linecap="square" stroke-linejoin="bevel" transform="matrix(1,0,0,1,-83,-28)"
font-family="Sans Serif" font-size="9" font-weight="400" font-style="normal" 
>
</g>

<g fill="#ffff00" fill-opacity="1" stroke="#000000" stroke-opacity="1" stroke-width="1" stroke-linecap="square" stroke-linejoin="bevel" transform="matrix(1,0,0,1,-83,-28)"
font-family="Sans Serif" font-size="9" font-weight="400" font-style="normal" 
>
<text fill="#000000" fill-opacity="1" stroke="none" xml:space="preserve" x="770" y="183" font-family="Sans Serif" font-size="9" font-weight="400" font-style="normal" 
 >PlotsExtractorCli</text>
</g>

<g fill="#ffff00" fill-opacity="1" stroke="#000000" stroke-opacity="1" stroke-width="1" stroke-linecap="square" stroke-linejoin="bevel" transform="matrix(1,0,0,1,-83,-28)"
font-family="Sans Serif" font-size="9" font-weight="400" font-style="normal" 
>
</g>

<g fill="#ffff00" fill-opacity="1" stroke="#ff0000" stroke-opacity="1" stroke-width="1" stroke-linecap="square" stroke-linejoin="bevel" transform="matrix(1,0,0,1,-83,-28)"
font-family="Sans Serif" font-size="9" font-weight="400" font-style="normal" 
>
<path vector-effect="non-scaling-stroke" fill-rule="evenodd" d="M758,226 L808,226 L808,236 L758,236 L758,226"/>
<path vector-effect="non-scaling-stroke" fill-rule="evenodd" d="M758,235 L828,235 L828,255 L758,255 L758,235"/>
</g>

<g fill="#ffff00" fill-opacity="1" stroke="#000000" stroke-opacity="1" stroke-width="1" stroke-linecap="square" stroke-linejoin="bevel" transform="matrix(1,0,0,1,-83,-28)"
font-family="Sans Serif" font-size="9" font-weight="700" font-style="normal" 
>
</g>

<g fill="#ffff00" fill-opacity="1" stroke="#000000" stroke-opacity="1" stroke-width="1" stroke-linecap="square" stroke-linejoin="bevel" transform="matrix(1,0,0,1,-83,-28)"
font-family="Sans Serif" font-size="9" font-weight="700" font-style="normal" 
>
<text fill="#000000" fill-opacity="1" stroke="none" xml:space="preserve" x="785.5" y="249" font-family="Sans Serif" font-size="9" font-weight="700" font-style="normal" 
 >gui</text>
</g>

<g fill="#ffff00" fill-opacity="1" stroke="#000000" stroke-opacity="1" stroke-width="1" stroke-linecap="square" stroke-linejoin="bevel" transform="matrix(1,0,0,1,-83,-28)"
font-family="Sans Serif" font-size="9" font-weight="700" font-style="normal" 
>
</g>

<g fill="#ffff00" fill-opacity="1" stroke="#ff0000" stroke-opacity="1" stroke-width="1" stroke-linecap="square" stroke-linejoin="bevel" transform="matrix(1,0,0,1,-83,-28)"
font-family="Sans Serif" font-size="9" font-weight="700" font-style="normal" 
>
<path vector-effect="non-scaling-stroke" fill-rule="evenodd" d="M758,262 L758,311 L807,311 L807,272 L797,262 L758,262"/>
<polyline fill="none" vector-effect="non-scaling-stroke" points="797,262 797,272 " />
<polyline fill="none" vector-effect="non-scaling-stroke" points="797,272 807,272 " />
</g>

<g fill="#ffff00" fill-opacity="1" stroke="#000000" stroke-opacity="1" stroke-width="1" stroke-linecap="square" stroke-linejoin="bevel" transform="matrix(1,0,0,1,-83,-28)"
font-family="Sans Serif" font-size="9" font-weight="400" font-style="normal" 
>
</g>

<g fill="#ffff00" fill-opacity="1" stroke="#000000" stroke-opacity="1" stroke-width="1" stroke-linecap="square" stroke-linejoin="bevel" transform="matrix(1,0,0,1,-83,-28)"
font-family="Sans Serif" font-size="9" font-weight="400" font-style="normal" 
>
<text fill="#000000" fill-opacity="1" stroke="none" xml:space="preserve" x="767" y="286" font-family="Sans Serif" font-size="9" font-weight="400" font-style="normal" 
 >ExtractorInterface</text>
</g>

<g fill="#ffff00" fill-opacity="1" stroke="#000000" stroke-opacity="1" stroke-width="1" stroke-linecap="square" stroke-linejoin="bevel" transform="matrix(1,0,0,1,-83,-28)"
font-family="Sans Serif" font-size="9" font-weight="400" font-style="normal" 
>
</g>

<g fill="#ffff00" fill-opacity="1" stroke="#000000" stroke-opacity="1" stroke-width="1" stroke-linecap="square" stroke-linejoin="bevel" transform="matrix(1,0,0,1,-83,-28)"
font-family="Sans Serif" font-size="9" font-weight="400" font-style="normal" 
>
<text fill="#000000" fill-opacity="1" stroke="none" xml:space="preserve" x="767" y="306" font-family="Sans Serif" font-size="9" font-weight="400" font-style="normal" 
 >PdfPageComposite</text>
</g>

<g fill="#ffff00" fill-opacity="1" stroke="#000000" stroke-opacity="1" stroke-width="1" stroke-linecap="square" stroke-linejoin="bevel" transform="matrix(1,0,0,1,-83,-28)"
font-family="Sans Serif" font-size="9" font-weight="400" font-style="normal" 
>
</g>

<g fill="#ffff00" fill-opacity="1" stroke="#ff0000" stroke-opacity="1" stroke-width="1" stroke-linecap="square" stroke-linejoin="bevel" transform="matrix(1,0,0,1,-83,-28)"
font-family="Sans Serif" font-size="9" font-weight="400" font-style="normal" 
>
<path vector-effect="non-scaling-stroke" fill-rule="evenodd" d="M561,731 L561,780 L610,780 L610,741 L600,731 L561,731"/>
<polyline fill="none" vector-effect="non-scaling-stroke" points="600,731 600,741 " />
<polyline fill="none" vector-effect="non-scaling-stroke" points="600,741 610,741 " />
</g>

<g fill="#ffff00" fill-opacity="1" stroke="#000000" stroke-opacity="1" stroke-width="1" stroke-linecap="square" stroke-linejoin="bevel" transform="matrix(1,0,0,1,-83,-28)"
font-family="Sans Serif" font-size="9" font-weight="400" font-style="normal" 
>
</g>

<g fill="#ffff00" fill-opacity="1" stroke="#000000" stroke-opacity="1" stroke-width="1" stroke-linecap="square" stroke-linejoin="bevel" transform="matrix(1,0,0,1,-83,-28)"
font-family="Sans Serif" font-size="9" font-weight="400" font-style="normal" 
>
<text fill="#000000" fill-opacity="1" stroke="none" xml:space="preserve" x="570" y="755" font-family="Sans Serif" font-size="9" font-weight="400" font-style="normal" 
 >ExtractorCSInterpreter</text>
</g>

<g fill="#ffff00" fill-opacity="1" stroke="#000000" stroke-opacity="1" stroke-width="1" stroke-linecap="square" stroke-linejoin="bevel" transform="matrix(1,0,0,1,-83,-28)"
font-family="Sans Serif" font-size="9" font-weight="400" font-style="normal" 
>
</g>

<g fill="#ffff00" fill-opacity="1" stroke="#000000" stroke-opacity="1" stroke-width="1" stroke-linecap="square" stroke-linejoin="bevel" transform="matrix(1,0,0,1,-83,-28)"
font-family="Sans Serif" font-size="9" font-weight="400" font-style="normal" 
>
<text fill="#000000" fill-opacity="1" stroke="none" xml:space="preserve" x="570" y="775" font-family="Sans Serif" font-size="9" font-weight="400" font-style="normal" 
 >ExtractorCSTextInterpreter</text>
</g>

<g fill="#ffff00" fill-opacity="1" stroke="#000000" stroke-opacity="1" stroke-width="1" stroke-linecap="square" stroke-linejoin="bevel" transform="matrix(1,0,0,1,-83,-28)"
font-family="Sans Serif" font-size="9" font-weight="400" font-style="normal" 
>
</g>
</g>
</svg>
